<svg xmlns="http://www.w3.org/2000/svg" xmlns:xlink="http://www.w3.org/1999/xlink" width="256" height="296" preserveAspectRatio="xMidYMid" version="1.1" viewBox="0 0 256 296"><title>qdrant</title><defs><linearGradient id="linearGradient-1" x1="81.562%" x2="-18.086%" y1="44.842%" y2="44.842%"><stop offset="0%" stop-color="#FF3364"/><stop offset="100%" stop-color="#C91540" stop-opacity="0"/></linearGradient></defs><g><polygon fill="#24386C" points="201.317 271.722 195.423 109.213 184.748 66.368 256 73.911 256 270.493 212.475 295.613"/><polygon fill="#7589BE" points="255.995 73.9 212.47 99.037 122.65 79.335 17.516 122.14 0 73.9 63.988 36.95 127.996 0 191.986 36.95"/><polyline fill="#B2BFE8" points=".003 73.9 43.528 99.037 68.759 174.074 153.949 242.236 128.001 295.599 63.993 258.647 .003 221.697 .003 73.898"/><polyline fill="#24386C" points="156.857 202.807 128.001 245.347 128.001 295.603 168.947 271.978 190.044 240.475"/><polygon fill="#7589BE" points="128.019 195.107 87.056 124.185 95.879 100.678 129.421 84.416 168.946 124.186"/><polyline fill="#B2BFE8" points="87.056 124.179 128.001 147.804 128.001 195.092 90.132 196.721 67.225 167.471 87.056 124.179"/><polygon fill="#24386C" points="128.001 147.8 168.947 124.177 196.813 170.577 163.091 198.439 128.001 195.089"/><path fill="#DC244C" d="M168.946605,271.974579 L212.471848,295.601182 L212.471848,99.0393237 L170.226759,74.658205 L128.001067,50.2770864 L85.7559782,74.658205 L43.5302858,99.0393237 L43.5302858,196.581255 L85.7559782,220.962373 L128.001067,245.345432 L168.946605,221.699432 L168.946605,271.974579 Z M168.946605,171.443681 L128.001067,195.087742 L87.0555287,171.443681 L87.0555287,124.174957 L128.001067,100.530897 L168.946605,124.174957 L168.946605,171.443681"/><polygon fill="url(#linearGradient-1)" points="128.019 245.363 128.019 195.099 87.286 171.657 87.286 221.837"/></g></svg>